<mxfile host="65bd71144e">
    <diagram id="R2lEEEUBdFMjLlhIrx00" name="Page-1">
        <mxGraphModel dx="2489" dy="1179" grid="1" gridSize="10" guides="1" tooltips="1" connect="1" arrows="1" fold="1" page="1" pageScale="1" pageWidth="850" pageHeight="1100" math="0" shadow="0" extFonts="Permanent Marker^https://fonts.googleapis.com/css?family=Permanent+Marker">
            <root>
                <mxCell id="0"/>
                <mxCell id="1" parent="0"/>
                <mxCell id="RUxIvZRB7XPH0YZIQcYa-138" value="User" style="shape=table;startSize=30;container=1;collapsible=1;childLayout=tableLayout;fixedRows=1;rowLines=0;fontStyle=1;align=center;resizeLast=1;" parent="1" vertex="1">
                    <mxGeometry x="-820" y="30" width="370" height="240" as="geometry"/>
                </mxCell>
                <mxCell id="RUxIvZRB7XPH0YZIQcYa-139" value="" style="shape=tableRow;horizontal=0;startSize=0;swimlaneHead=0;swimlaneBody=0;fillColor=none;collapsible=0;dropTarget=0;points=[[0,0.5],[1,0.5]];portConstraint=eastwest;strokeColor=inherit;top=0;left=0;right=0;bottom=1;" parent="RUxIvZRB7XPH0YZIQcYa-138" vertex="1">
                    <mxGeometry y="30" width="370" height="30" as="geometry"/>
                </mxCell>
                <mxCell id="RUxIvZRB7XPH0YZIQcYa-140" value="PK" style="shape=partialRectangle;overflow=hidden;connectable=0;fillColor=none;strokeColor=inherit;top=0;left=0;bottom=0;right=0;fontStyle=1;" parent="RUxIvZRB7XPH0YZIQcYa-139" vertex="1">
                    <mxGeometry width="30" height="30" as="geometry">
                        <mxRectangle width="30" height="30" as="alternateBounds"/>
                    </mxGeometry>
                </mxCell>
                <mxCell id="RUxIvZRB7XPH0YZIQcYa-141" value="id INT  AUTO_INCREMENT" style="shape=partialRectangle;overflow=hidden;connectable=0;fillColor=none;align=left;strokeColor=inherit;top=0;left=0;bottom=0;right=0;spacingLeft=6;fontStyle=5;" parent="RUxIvZRB7XPH0YZIQcYa-139" vertex="1">
                    <mxGeometry x="30" width="340" height="30" as="geometry">
                        <mxRectangle width="340" height="30" as="alternateBounds"/>
                    </mxGeometry>
                </mxCell>
                <mxCell id="RUxIvZRB7XPH0YZIQcYa-142" value="" style="shape=tableRow;horizontal=0;startSize=0;swimlaneHead=0;swimlaneBody=0;fillColor=none;collapsible=0;dropTarget=0;points=[[0,0.5],[1,0.5]];portConstraint=eastwest;strokeColor=inherit;top=0;left=0;right=0;bottom=0;" parent="RUxIvZRB7XPH0YZIQcYa-138" vertex="1">
                    <mxGeometry y="60" width="370" height="30" as="geometry"/>
                </mxCell>
                <mxCell id="RUxIvZRB7XPH0YZIQcYa-143" value="" style="shape=partialRectangle;overflow=hidden;connectable=0;fillColor=none;strokeColor=inherit;top=0;left=0;bottom=0;right=0;" parent="RUxIvZRB7XPH0YZIQcYa-142" vertex="1">
                    <mxGeometry width="30" height="30" as="geometry">
                        <mxRectangle width="30" height="30" as="alternateBounds"/>
                    </mxGeometry>
                </mxCell>
                <mxCell id="RUxIvZRB7XPH0YZIQcYa-144" value="username VARCHAR(150) NOT NULL" style="shape=partialRectangle;overflow=hidden;connectable=0;fillColor=none;align=left;strokeColor=inherit;top=0;left=0;bottom=0;right=0;spacingLeft=6;" parent="RUxIvZRB7XPH0YZIQcYa-142" vertex="1">
                    <mxGeometry x="30" width="340" height="30" as="geometry">
                        <mxRectangle width="340" height="30" as="alternateBounds"/>
                    </mxGeometry>
                </mxCell>
                <mxCell id="RUxIvZRB7XPH0YZIQcYa-145" value="" style="shape=tableRow;horizontal=0;startSize=0;swimlaneHead=0;swimlaneBody=0;fillColor=none;collapsible=0;dropTarget=0;points=[[0,0.5],[1,0.5]];portConstraint=eastwest;strokeColor=inherit;top=0;left=0;right=0;bottom=0;" parent="RUxIvZRB7XPH0YZIQcYa-138" vertex="1">
                    <mxGeometry y="90" width="370" height="30" as="geometry"/>
                </mxCell>
                <mxCell id="RUxIvZRB7XPH0YZIQcYa-146" value="" style="shape=partialRectangle;overflow=hidden;connectable=0;fillColor=none;strokeColor=inherit;top=0;left=0;bottom=0;right=0;" parent="RUxIvZRB7XPH0YZIQcYa-145" vertex="1">
                    <mxGeometry width="30" height="30" as="geometry">
                        <mxRectangle width="30" height="30" as="alternateBounds"/>
                    </mxGeometry>
                </mxCell>
                <mxCell id="RUxIvZRB7XPH0YZIQcYa-147" value="email VARCHAR(255) NOT NULL UNIQUE" style="shape=partialRectangle;overflow=hidden;connectable=0;fillColor=none;align=left;strokeColor=inherit;top=0;left=0;bottom=0;right=0;spacingLeft=6;" parent="RUxIvZRB7XPH0YZIQcYa-145" vertex="1">
                    <mxGeometry x="30" width="340" height="30" as="geometry">
                        <mxRectangle width="340" height="30" as="alternateBounds"/>
                    </mxGeometry>
                </mxCell>
                <mxCell id="RUxIvZRB7XPH0YZIQcYa-148" value="" style="shape=tableRow;horizontal=0;startSize=0;swimlaneHead=0;swimlaneBody=0;fillColor=none;collapsible=0;dropTarget=0;points=[[0,0.5],[1,0.5]];portConstraint=eastwest;strokeColor=inherit;top=0;left=0;right=0;bottom=0;" parent="RUxIvZRB7XPH0YZIQcYa-138" vertex="1">
                    <mxGeometry y="120" width="370" height="30" as="geometry"/>
                </mxCell>
                <mxCell id="RUxIvZRB7XPH0YZIQcYa-149" value="" style="shape=partialRectangle;overflow=hidden;connectable=0;fillColor=none;strokeColor=inherit;top=0;left=0;bottom=0;right=0;" parent="RUxIvZRB7XPH0YZIQcYa-148" vertex="1">
                    <mxGeometry width="30" height="30" as="geometry">
                        <mxRectangle width="30" height="30" as="alternateBounds"/>
                    </mxGeometry>
                </mxCell>
                <mxCell id="RUxIvZRB7XPH0YZIQcYa-150" value="password VARCHAR(255) NOT NULL" style="shape=partialRectangle;overflow=hidden;connectable=0;fillColor=none;align=left;strokeColor=inherit;top=0;left=0;bottom=0;right=0;spacingLeft=6;" parent="RUxIvZRB7XPH0YZIQcYa-148" vertex="1">
                    <mxGeometry x="30" width="340" height="30" as="geometry">
                        <mxRectangle width="340" height="30" as="alternateBounds"/>
                    </mxGeometry>
                </mxCell>
                <mxCell id="RUxIvZRB7XPH0YZIQcYa-151" value="" style="shape=tableRow;horizontal=0;startSize=0;swimlaneHead=0;swimlaneBody=0;fillColor=none;collapsible=0;dropTarget=0;points=[[0,0.5],[1,0.5]];portConstraint=eastwest;strokeColor=inherit;top=0;left=0;right=0;bottom=0;" parent="RUxIvZRB7XPH0YZIQcYa-138" vertex="1">
                    <mxGeometry y="150" width="370" height="30" as="geometry"/>
                </mxCell>
                <mxCell id="RUxIvZRB7XPH0YZIQcYa-152" value="" style="shape=partialRectangle;overflow=hidden;connectable=0;fillColor=none;strokeColor=inherit;top=0;left=0;bottom=0;right=0;" parent="RUxIvZRB7XPH0YZIQcYa-151" vertex="1">
                    <mxGeometry width="30" height="30" as="geometry">
                        <mxRectangle width="30" height="30" as="alternateBounds"/>
                    </mxGeometry>
                </mxCell>
                <mxCell id="RUxIvZRB7XPH0YZIQcYa-153" value="role ENUM(&#39;player&#39;, &#39;manager&#39;, &#39;coach&#39;, &#39;director&#39;) NOT NULL" style="shape=partialRectangle;overflow=hidden;connectable=0;fillColor=none;align=left;strokeColor=inherit;top=0;left=0;bottom=0;right=0;spacingLeft=6;" parent="RUxIvZRB7XPH0YZIQcYa-151" vertex="1">
                    <mxGeometry x="30" width="340" height="30" as="geometry">
                        <mxRectangle width="340" height="30" as="alternateBounds"/>
                    </mxGeometry>
                </mxCell>
                <mxCell id="RUxIvZRB7XPH0YZIQcYa-154" value="" style="shape=tableRow;horizontal=0;startSize=0;swimlaneHead=0;swimlaneBody=0;fillColor=none;collapsible=0;dropTarget=0;points=[[0,0.5],[1,0.5]];portConstraint=eastwest;strokeColor=inherit;top=0;left=0;right=0;bottom=0;" parent="RUxIvZRB7XPH0YZIQcYa-138" vertex="1">
                    <mxGeometry y="180" width="370" height="30" as="geometry"/>
                </mxCell>
                <mxCell id="RUxIvZRB7XPH0YZIQcYa-155" value="" style="shape=partialRectangle;overflow=hidden;connectable=0;fillColor=none;strokeColor=inherit;top=0;left=0;bottom=0;right=0;" parent="RUxIvZRB7XPH0YZIQcYa-154" vertex="1">
                    <mxGeometry width="30" height="30" as="geometry">
                        <mxRectangle width="30" height="30" as="alternateBounds"/>
                    </mxGeometry>
                </mxCell>
                <mxCell id="RUxIvZRB7XPH0YZIQcYa-156" value="created_at DATETIME NOT NULL" style="shape=partialRectangle;overflow=hidden;connectable=0;fillColor=none;align=left;strokeColor=inherit;top=0;left=0;bottom=0;right=0;spacingLeft=6;" parent="RUxIvZRB7XPH0YZIQcYa-154" vertex="1">
                    <mxGeometry x="30" width="340" height="30" as="geometry">
                        <mxRectangle width="340" height="30" as="alternateBounds"/>
                    </mxGeometry>
                </mxCell>
                <mxCell id="RUxIvZRB7XPH0YZIQcYa-157" value="" style="shape=tableRow;horizontal=0;startSize=0;swimlaneHead=0;swimlaneBody=0;fillColor=none;collapsible=0;dropTarget=0;points=[[0,0.5],[1,0.5]];portConstraint=eastwest;strokeColor=inherit;top=0;left=0;right=0;bottom=0;" parent="RUxIvZRB7XPH0YZIQcYa-138" vertex="1">
                    <mxGeometry y="210" width="370" height="30" as="geometry"/>
                </mxCell>
                <mxCell id="RUxIvZRB7XPH0YZIQcYa-158" value="" style="shape=partialRectangle;overflow=hidden;connectable=0;fillColor=none;strokeColor=inherit;top=0;left=0;bottom=0;right=0;" parent="RUxIvZRB7XPH0YZIQcYa-157" vertex="1">
                    <mxGeometry width="30" height="30" as="geometry">
                        <mxRectangle width="30" height="30" as="alternateBounds"/>
                    </mxGeometry>
                </mxCell>
                <mxCell id="RUxIvZRB7XPH0YZIQcYa-159" value="updated_at DATETIME NOT NULL" style="shape=partialRectangle;overflow=hidden;connectable=0;fillColor=none;align=left;strokeColor=inherit;top=0;left=0;bottom=0;right=0;spacingLeft=6;" parent="RUxIvZRB7XPH0YZIQcYa-157" vertex="1">
                    <mxGeometry x="30" width="340" height="30" as="geometry">
                        <mxRectangle width="340" height="30" as="alternateBounds"/>
                    </mxGeometry>
                </mxCell>
                <mxCell id="RUxIvZRB7XPH0YZIQcYa-160" value="StudentProfile" style="shape=table;startSize=30;container=1;collapsible=1;childLayout=tableLayout;fixedRows=1;rowLines=0;fontStyle=1;align=center;resizeLast=1;" parent="1" vertex="1">
                    <mxGeometry x="-380" y="30" width="440" height="270" as="geometry"/>
                </mxCell>
                <mxCell id="RUxIvZRB7XPH0YZIQcYa-161" value="" style="shape=tableRow;horizontal=0;startSize=0;swimlaneHead=0;swimlaneBody=0;fillColor=none;collapsible=0;dropTarget=0;points=[[0,0.5],[1,0.5]];portConstraint=eastwest;strokeColor=inherit;top=0;left=0;right=0;bottom=1;" parent="RUxIvZRB7XPH0YZIQcYa-160" vertex="1">
                    <mxGeometry y="30" width="440" height="30" as="geometry"/>
                </mxCell>
                <mxCell id="RUxIvZRB7XPH0YZIQcYa-162" value="PK" style="shape=partialRectangle;overflow=hidden;connectable=0;fillColor=none;strokeColor=inherit;top=0;left=0;bottom=0;right=0;fontStyle=1;" parent="RUxIvZRB7XPH0YZIQcYa-161" vertex="1">
                    <mxGeometry width="30" height="30" as="geometry">
                        <mxRectangle width="30" height="30" as="alternateBounds"/>
                    </mxGeometry>
                </mxCell>
                <mxCell id="RUxIvZRB7XPH0YZIQcYa-163" value="id INT  AUTO_INCREMENT" style="shape=partialRectangle;overflow=hidden;connectable=0;fillColor=none;align=left;strokeColor=inherit;top=0;left=0;bottom=0;right=0;spacingLeft=6;fontStyle=5;" parent="RUxIvZRB7XPH0YZIQcYa-161" vertex="1">
                    <mxGeometry x="30" width="410" height="30" as="geometry">
                        <mxRectangle width="410" height="30" as="alternateBounds"/>
                    </mxGeometry>
                </mxCell>
                <mxCell id="RUxIvZRB7XPH0YZIQcYa-164" value="" style="shape=tableRow;horizontal=0;startSize=0;swimlaneHead=0;swimlaneBody=0;fillColor=none;collapsible=0;dropTarget=0;points=[[0,0.5],[1,0.5]];portConstraint=eastwest;strokeColor=inherit;top=0;left=0;right=0;bottom=0;" parent="RUxIvZRB7XPH0YZIQcYa-160" vertex="1">
                    <mxGeometry y="60" width="440" height="30" as="geometry"/>
                </mxCell>
                <mxCell id="RUxIvZRB7XPH0YZIQcYa-165" value="FK1" style="shape=partialRectangle;overflow=hidden;connectable=0;fillColor=none;strokeColor=inherit;top=0;left=0;bottom=0;right=0;" parent="RUxIvZRB7XPH0YZIQcYa-164" vertex="1">
                    <mxGeometry width="30" height="30" as="geometry">
                        <mxRectangle width="30" height="30" as="alternateBounds"/>
                    </mxGeometry>
                </mxCell>
                <mxCell id="RUxIvZRB7XPH0YZIQcYa-166" value="user_id INT NOT NULL" style="shape=partialRectangle;overflow=hidden;connectable=0;fillColor=none;align=left;strokeColor=inherit;top=0;left=0;bottom=0;right=0;spacingLeft=6;" parent="RUxIvZRB7XPH0YZIQcYa-164" vertex="1">
                    <mxGeometry x="30" width="410" height="30" as="geometry">
                        <mxRectangle width="410" height="30" as="alternateBounds"/>
                    </mxGeometry>
                </mxCell>
                <mxCell id="RUxIvZRB7XPH0YZIQcYa-167" value="" style="shape=tableRow;horizontal=0;startSize=0;swimlaneHead=0;swimlaneBody=0;fillColor=none;collapsible=0;dropTarget=0;points=[[0,0.5],[1,0.5]];portConstraint=eastwest;strokeColor=inherit;top=0;left=0;right=0;bottom=0;" parent="RUxIvZRB7XPH0YZIQcYa-160" vertex="1">
                    <mxGeometry y="90" width="440" height="30" as="geometry"/>
                </mxCell>
                <mxCell id="RUxIvZRB7XPH0YZIQcYa-168" value="" style="shape=partialRectangle;overflow=hidden;connectable=0;fillColor=none;strokeColor=inherit;top=0;left=0;bottom=0;right=0;" parent="RUxIvZRB7XPH0YZIQcYa-167" vertex="1">
                    <mxGeometry width="30" height="30" as="geometry">
                        <mxRectangle width="30" height="30" as="alternateBounds"/>
                    </mxGeometry>
                </mxCell>
                <mxCell id="RUxIvZRB7XPH0YZIQcYa-169" value="grade INT NOT NULL" style="shape=partialRectangle;overflow=hidden;connectable=0;fillColor=none;align=left;strokeColor=inherit;top=0;left=0;bottom=0;right=0;spacingLeft=6;" parent="RUxIvZRB7XPH0YZIQcYa-167" vertex="1">
                    <mxGeometry x="30" width="410" height="30" as="geometry">
                        <mxRectangle width="410" height="30" as="alternateBounds"/>
                    </mxGeometry>
                </mxCell>
                <mxCell id="RUxIvZRB7XPH0YZIQcYa-170" value="" style="shape=tableRow;horizontal=0;startSize=0;swimlaneHead=0;swimlaneBody=0;fillColor=none;collapsible=0;dropTarget=0;points=[[0,0.5],[1,0.5]];portConstraint=eastwest;strokeColor=inherit;top=0;left=0;right=0;bottom=0;" parent="RUxIvZRB7XPH0YZIQcYa-160" vertex="1">
                    <mxGeometry y="120" width="440" height="30" as="geometry"/>
                </mxCell>
                <mxCell id="RUxIvZRB7XPH0YZIQcYa-171" value="" style="shape=partialRectangle;overflow=hidden;connectable=0;fillColor=none;strokeColor=inherit;top=0;left=0;bottom=0;right=0;" parent="RUxIvZRB7XPH0YZIQcYa-170" vertex="1">
                    <mxGeometry width="30" height="30" as="geometry">
                        <mxRectangle width="30" height="30" as="alternateBounds"/>
                    </mxGeometry>
                </mxCell>
                <mxCell id="RUxIvZRB7XPH0YZIQcYa-172" value="class_number VARCHAR(10)" style="shape=partialRectangle;overflow=hidden;connectable=0;fillColor=none;align=left;strokeColor=inherit;top=0;left=0;bottom=0;right=0;spacingLeft=6;" parent="RUxIvZRB7XPH0YZIQcYa-170" vertex="1">
                    <mxGeometry x="30" width="410" height="30" as="geometry">
                        <mxRectangle width="410" height="30" as="alternateBounds"/>
                    </mxGeometry>
                </mxCell>
                <mxCell id="RUxIvZRB7XPH0YZIQcYa-173" value="" style="shape=tableRow;horizontal=0;startSize=0;swimlaneHead=0;swimlaneBody=0;fillColor=none;collapsible=0;dropTarget=0;points=[[0,0.5],[1,0.5]];portConstraint=eastwest;strokeColor=inherit;top=0;left=0;right=0;bottom=0;" parent="RUxIvZRB7XPH0YZIQcYa-160" vertex="1">
                    <mxGeometry y="150" width="440" height="30" as="geometry"/>
                </mxCell>
                <mxCell id="RUxIvZRB7XPH0YZIQcYa-174" value="" style="shape=partialRectangle;overflow=hidden;connectable=0;fillColor=none;strokeColor=inherit;top=0;left=0;bottom=0;right=0;" parent="RUxIvZRB7XPH0YZIQcYa-173" vertex="1">
                    <mxGeometry width="30" height="30" as="geometry">
                        <mxRectangle width="30" height="30" as="alternateBounds"/>
                    </mxGeometry>
                </mxCell>
                <mxCell id="RUxIvZRB7XPH0YZIQcYa-175" value="joined_at DATE NOT NULL" style="shape=partialRectangle;overflow=hidden;connectable=0;fillColor=none;align=left;strokeColor=inherit;top=0;left=0;bottom=0;right=0;spacingLeft=6;" parent="RUxIvZRB7XPH0YZIQcYa-173" vertex="1">
                    <mxGeometry x="30" width="410" height="30" as="geometry">
                        <mxRectangle width="410" height="30" as="alternateBounds"/>
                    </mxGeometry>
                </mxCell>
                <mxCell id="RUxIvZRB7XPH0YZIQcYa-176" value="" style="shape=tableRow;horizontal=0;startSize=0;swimlaneHead=0;swimlaneBody=0;fillColor=none;collapsible=0;dropTarget=0;points=[[0,0.5],[1,0.5]];portConstraint=eastwest;strokeColor=inherit;top=0;left=0;right=0;bottom=0;" parent="RUxIvZRB7XPH0YZIQcYa-160" vertex="1">
                    <mxGeometry y="180" width="440" height="30" as="geometry"/>
                </mxCell>
                <mxCell id="RUxIvZRB7XPH0YZIQcYa-177" value="" style="shape=partialRectangle;overflow=hidden;connectable=0;fillColor=none;strokeColor=inherit;top=0;left=0;bottom=0;right=0;" parent="RUxIvZRB7XPH0YZIQcYa-176" vertex="1">
                    <mxGeometry width="30" height="30" as="geometry">
                        <mxRectangle width="30" height="30" as="alternateBounds"/>
                    </mxGeometry>
                </mxCell>
                <mxCell id="RUxIvZRB7XPH0YZIQcYa-178" value="status ENUM(&#39;active&#39;, &#39;retired&#39;, &#39;graduated&#39;, &#39;suspended&#39;) DEFAULT &#39;active&#39;" style="shape=partialRectangle;overflow=hidden;connectable=0;fillColor=none;align=left;strokeColor=inherit;top=0;left=0;bottom=0;right=0;spacingLeft=6;" parent="RUxIvZRB7XPH0YZIQcYa-176" vertex="1">
                    <mxGeometry x="30" width="410" height="30" as="geometry">
                        <mxRectangle width="410" height="30" as="alternateBounds"/>
                    </mxGeometry>
                </mxCell>
                <mxCell id="RUxIvZRB7XPH0YZIQcYa-179" value="" style="shape=tableRow;horizontal=0;startSize=0;swimlaneHead=0;swimlaneBody=0;fillColor=none;collapsible=0;dropTarget=0;points=[[0,0.5],[1,0.5]];portConstraint=eastwest;strokeColor=inherit;top=0;left=0;right=0;bottom=0;" parent="RUxIvZRB7XPH0YZIQcYa-160" vertex="1">
                    <mxGeometry y="210" width="440" height="30" as="geometry"/>
                </mxCell>
                <mxCell id="RUxIvZRB7XPH0YZIQcYa-180" value="" style="shape=partialRectangle;overflow=hidden;connectable=0;fillColor=none;strokeColor=inherit;top=0;left=0;bottom=0;right=0;" parent="RUxIvZRB7XPH0YZIQcYa-179" vertex="1">
                    <mxGeometry width="30" height="30" as="geometry">
                        <mxRectangle width="30" height="30" as="alternateBounds"/>
                    </mxGeometry>
                </mxCell>
                <mxCell id="RUxIvZRB7XPH0YZIQcYa-181" value="left_at DATE" style="shape=partialRectangle;overflow=hidden;connectable=0;fillColor=none;align=left;strokeColor=inherit;top=0;left=0;bottom=0;right=0;spacingLeft=6;" parent="RUxIvZRB7XPH0YZIQcYa-179" vertex="1">
                    <mxGeometry x="30" width="410" height="30" as="geometry">
                        <mxRectangle width="410" height="30" as="alternateBounds"/>
                    </mxGeometry>
                </mxCell>
                <mxCell id="RUxIvZRB7XPH0YZIQcYa-182" value="" style="shape=tableRow;horizontal=0;startSize=0;swimlaneHead=0;swimlaneBody=0;fillColor=none;collapsible=0;dropTarget=0;points=[[0,0.5],[1,0.5]];portConstraint=eastwest;strokeColor=inherit;top=0;left=0;right=0;bottom=0;" parent="RUxIvZRB7XPH0YZIQcYa-160" vertex="1">
                    <mxGeometry y="240" width="440" height="30" as="geometry"/>
                </mxCell>
                <mxCell id="RUxIvZRB7XPH0YZIQcYa-183" value="" style="shape=partialRectangle;overflow=hidden;connectable=0;fillColor=none;strokeColor=inherit;top=0;left=0;bottom=0;right=0;" parent="RUxIvZRB7XPH0YZIQcYa-182" vertex="1">
                    <mxGeometry width="30" height="30" as="geometry">
                        <mxRectangle width="30" height="30" as="alternateBounds"/>
                    </mxGeometry>
                </mxCell>
                <mxCell id="RUxIvZRB7XPH0YZIQcYa-184" value="leave_reason TEXT" style="shape=partialRectangle;overflow=hidden;connectable=0;fillColor=none;align=left;strokeColor=inherit;top=0;left=0;bottom=0;right=0;spacingLeft=6;" parent="RUxIvZRB7XPH0YZIQcYa-182" vertex="1">
                    <mxGeometry x="30" width="410" height="30" as="geometry">
                        <mxRectangle width="410" height="30" as="alternateBounds"/>
                    </mxGeometry>
                </mxCell>
                <mxCell id="RUxIvZRB7XPH0YZIQcYa-188" value="PlayerProfile" style="shape=table;startSize=30;container=1;collapsible=1;childLayout=tableLayout;fixedRows=1;rowLines=0;fontStyle=1;align=center;resizeLast=1;" parent="1" vertex="1">
                    <mxGeometry x="130" y="30" width="230" height="150" as="geometry"/>
                </mxCell>
                <mxCell id="RUxIvZRB7XPH0YZIQcYa-189" value="" style="shape=tableRow;horizontal=0;startSize=0;swimlaneHead=0;swimlaneBody=0;fillColor=none;collapsible=0;dropTarget=0;points=[[0,0.5],[1,0.5]];portConstraint=eastwest;strokeColor=inherit;top=0;left=0;right=0;bottom=1;" parent="RUxIvZRB7XPH0YZIQcYa-188" vertex="1">
                    <mxGeometry y="30" width="230" height="30" as="geometry"/>
                </mxCell>
                <mxCell id="RUxIvZRB7XPH0YZIQcYa-190" value="PK" style="shape=partialRectangle;overflow=hidden;connectable=0;fillColor=none;strokeColor=inherit;top=0;left=0;bottom=0;right=0;fontStyle=1;" parent="RUxIvZRB7XPH0YZIQcYa-189" vertex="1">
                    <mxGeometry width="30" height="30" as="geometry">
                        <mxRectangle width="30" height="30" as="alternateBounds"/>
                    </mxGeometry>
                </mxCell>
                <mxCell id="RUxIvZRB7XPH0YZIQcYa-191" value="id INT  AUTO_INCREMENT" style="shape=partialRectangle;overflow=hidden;connectable=0;fillColor=none;align=left;strokeColor=inherit;top=0;left=0;bottom=0;right=0;spacingLeft=6;fontStyle=5;" parent="RUxIvZRB7XPH0YZIQcYa-189" vertex="1">
                    <mxGeometry x="30" width="200" height="30" as="geometry">
                        <mxRectangle width="200" height="30" as="alternateBounds"/>
                    </mxGeometry>
                </mxCell>
                <mxCell id="RUxIvZRB7XPH0YZIQcYa-192" value="" style="shape=tableRow;horizontal=0;startSize=0;swimlaneHead=0;swimlaneBody=0;fillColor=none;collapsible=0;dropTarget=0;points=[[0,0.5],[1,0.5]];portConstraint=eastwest;strokeColor=inherit;top=0;left=0;right=0;bottom=0;" parent="RUxIvZRB7XPH0YZIQcYa-188" vertex="1">
                    <mxGeometry y="60" width="230" height="30" as="geometry"/>
                </mxCell>
                <mxCell id="RUxIvZRB7XPH0YZIQcYa-193" value="FK1" style="shape=partialRectangle;overflow=hidden;connectable=0;fillColor=none;strokeColor=inherit;top=0;left=0;bottom=0;right=0;" parent="RUxIvZRB7XPH0YZIQcYa-192" vertex="1">
                    <mxGeometry width="30" height="30" as="geometry">
                        <mxRectangle width="30" height="30" as="alternateBounds"/>
                    </mxGeometry>
                </mxCell>
                <mxCell id="RUxIvZRB7XPH0YZIQcYa-194" value="student_id INT NOT NULL" style="shape=partialRectangle;overflow=hidden;connectable=0;fillColor=none;align=left;strokeColor=inherit;top=0;left=0;bottom=0;right=0;spacingLeft=6;" parent="RUxIvZRB7XPH0YZIQcYa-192" vertex="1">
                    <mxGeometry x="30" width="200" height="30" as="geometry">
                        <mxRectangle width="200" height="30" as="alternateBounds"/>
                    </mxGeometry>
                </mxCell>
                <mxCell id="RUxIvZRB7XPH0YZIQcYa-195" value="" style="shape=tableRow;horizontal=0;startSize=0;swimlaneHead=0;swimlaneBody=0;fillColor=none;collapsible=0;dropTarget=0;points=[[0,0.5],[1,0.5]];portConstraint=eastwest;strokeColor=inherit;top=0;left=0;right=0;bottom=0;" parent="RUxIvZRB7XPH0YZIQcYa-188" vertex="1">
                    <mxGeometry y="90" width="230" height="30" as="geometry"/>
                </mxCell>
                <mxCell id="RUxIvZRB7XPH0YZIQcYa-196" value="" style="shape=partialRectangle;overflow=hidden;connectable=0;fillColor=none;strokeColor=inherit;top=0;left=0;bottom=0;right=0;" parent="RUxIvZRB7XPH0YZIQcYa-195" vertex="1">
                    <mxGeometry width="30" height="30" as="geometry">
                        <mxRectangle width="30" height="30" as="alternateBounds"/>
                    </mxGeometry>
                </mxCell>
                <mxCell id="RUxIvZRB7XPH0YZIQcYa-197" value="position VARCHAR(50)" style="shape=partialRectangle;overflow=hidden;connectable=0;fillColor=none;align=left;strokeColor=inherit;top=0;left=0;bottom=0;right=0;spacingLeft=6;" parent="RUxIvZRB7XPH0YZIQcYa-195" vertex="1">
                    <mxGeometry x="30" width="200" height="30" as="geometry">
                        <mxRectangle width="200" height="30" as="alternateBounds"/>
                    </mxGeometry>
                </mxCell>
                <mxCell id="RUxIvZRB7XPH0YZIQcYa-198" value="" style="shape=tableRow;horizontal=0;startSize=0;swimlaneHead=0;swimlaneBody=0;fillColor=none;collapsible=0;dropTarget=0;points=[[0,0.5],[1,0.5]];portConstraint=eastwest;strokeColor=inherit;top=0;left=0;right=0;bottom=0;" parent="RUxIvZRB7XPH0YZIQcYa-188" vertex="1">
                    <mxGeometry y="120" width="230" height="30" as="geometry"/>
                </mxCell>
                <mxCell id="RUxIvZRB7XPH0YZIQcYa-199" value="" style="shape=partialRectangle;overflow=hidden;connectable=0;fillColor=none;strokeColor=inherit;top=0;left=0;bottom=0;right=0;" parent="RUxIvZRB7XPH0YZIQcYa-198" vertex="1">
                    <mxGeometry width="30" height="30" as="geometry">
                        <mxRectangle width="30" height="30" as="alternateBounds"/>
                    </mxGeometry>
                </mxCell>
                <mxCell id="RUxIvZRB7XPH0YZIQcYa-200" value="jersey_number INT" style="shape=partialRectangle;overflow=hidden;connectable=0;fillColor=none;align=left;strokeColor=inherit;top=0;left=0;bottom=0;right=0;spacingLeft=6;" parent="RUxIvZRB7XPH0YZIQcYa-198" vertex="1">
                    <mxGeometry x="30" width="200" height="30" as="geometry">
                        <mxRectangle width="200" height="30" as="alternateBounds"/>
                    </mxGeometry>
                </mxCell>
                <mxCell id="RUxIvZRB7XPH0YZIQcYa-204" value="MeasurementRecord" style="shape=table;startSize=30;container=1;collapsible=1;childLayout=tableLayout;fixedRows=1;rowLines=0;fontStyle=1;align=center;resizeLast=1;" parent="1" vertex="1">
                    <mxGeometry x="-660" y="380" width="600" height="240" as="geometry"/>
                </mxCell>
                <mxCell id="RUxIvZRB7XPH0YZIQcYa-205" value="" style="shape=tableRow;horizontal=0;startSize=0;swimlaneHead=0;swimlaneBody=0;fillColor=none;collapsible=0;dropTarget=0;points=[[0,0.5],[1,0.5]];portConstraint=eastwest;strokeColor=inherit;top=0;left=0;right=0;bottom=1;" parent="RUxIvZRB7XPH0YZIQcYa-204" vertex="1">
                    <mxGeometry y="30" width="600" height="30" as="geometry"/>
                </mxCell>
                <mxCell id="RUxIvZRB7XPH0YZIQcYa-206" value="PK" style="shape=partialRectangle;overflow=hidden;connectable=0;fillColor=none;strokeColor=inherit;top=0;left=0;bottom=0;right=0;fontStyle=1;" parent="RUxIvZRB7XPH0YZIQcYa-205" vertex="1">
                    <mxGeometry width="30" height="30" as="geometry">
                        <mxRectangle width="30" height="30" as="alternateBounds"/>
                    </mxGeometry>
                </mxCell>
                <mxCell id="RUxIvZRB7XPH0YZIQcYa-207" value="id INT  AUTO_INCREMENT" style="shape=partialRectangle;overflow=hidden;connectable=0;fillColor=none;align=left;strokeColor=inherit;top=0;left=0;bottom=0;right=0;spacingLeft=6;fontStyle=5;" parent="RUxIvZRB7XPH0YZIQcYa-205" vertex="1">
                    <mxGeometry x="30" width="570" height="30" as="geometry">
                        <mxRectangle width="570" height="30" as="alternateBounds"/>
                    </mxGeometry>
                </mxCell>
                <mxCell id="RUxIvZRB7XPH0YZIQcYa-208" value="" style="shape=tableRow;horizontal=0;startSize=0;swimlaneHead=0;swimlaneBody=0;fillColor=none;collapsible=0;dropTarget=0;points=[[0,0.5],[1,0.5]];portConstraint=eastwest;strokeColor=inherit;top=0;left=0;right=0;bottom=0;" parent="RUxIvZRB7XPH0YZIQcYa-204" vertex="1">
                    <mxGeometry y="60" width="600" height="30" as="geometry"/>
                </mxCell>
                <mxCell id="RUxIvZRB7XPH0YZIQcYa-209" value="FK1" style="shape=partialRectangle;overflow=hidden;connectable=0;fillColor=none;strokeColor=inherit;top=0;left=0;bottom=0;right=0;" parent="RUxIvZRB7XPH0YZIQcYa-208" vertex="1">
                    <mxGeometry width="30" height="30" as="geometry">
                        <mxRectangle width="30" height="30" as="alternateBounds"/>
                    </mxGeometry>
                </mxCell>
                <mxCell id="RUxIvZRB7XPH0YZIQcYa-210" value="player_id INT NOT NULL" style="shape=partialRectangle;overflow=hidden;connectable=0;fillColor=none;align=left;strokeColor=inherit;top=0;left=0;bottom=0;right=0;spacingLeft=6;" parent="RUxIvZRB7XPH0YZIQcYa-208" vertex="1">
                    <mxGeometry x="30" width="570" height="30" as="geometry">
                        <mxRectangle width="570" height="30" as="alternateBounds"/>
                    </mxGeometry>
                </mxCell>
                <mxCell id="RUxIvZRB7XPH0YZIQcYa-211" value="" style="shape=tableRow;horizontal=0;startSize=0;swimlaneHead=0;swimlaneBody=0;fillColor=none;collapsible=0;dropTarget=0;points=[[0,0.5],[1,0.5]];portConstraint=eastwest;strokeColor=inherit;top=0;left=0;right=0;bottom=0;" parent="RUxIvZRB7XPH0YZIQcYa-204" vertex="1">
                    <mxGeometry y="90" width="600" height="30" as="geometry"/>
                </mxCell>
                <mxCell id="RUxIvZRB7XPH0YZIQcYa-212" value="" style="shape=partialRectangle;overflow=hidden;connectable=0;fillColor=none;strokeColor=inherit;top=0;left=0;bottom=0;right=0;" parent="RUxIvZRB7XPH0YZIQcYa-211" vertex="1">
                    <mxGeometry width="30" height="30" as="geometry">
                        <mxRectangle width="30" height="30" as="alternateBounds"/>
                    </mxGeometry>
                </mxCell>
                <mxCell id="RUxIvZRB7XPH0YZIQcYa-213" value="measured_at DATE NOT NULL" style="shape=partialRectangle;overflow=hidden;connectable=0;fillColor=none;align=left;strokeColor=inherit;top=0;left=0;bottom=0;right=0;spacingLeft=6;" parent="RUxIvZRB7XPH0YZIQcYa-211" vertex="1">
                    <mxGeometry x="30" width="570" height="30" as="geometry">
                        <mxRectangle width="570" height="30" as="alternateBounds"/>
                    </mxGeometry>
                </mxCell>
                <mxCell id="RUxIvZRB7XPH0YZIQcYa-214" value="" style="shape=tableRow;horizontal=0;startSize=0;swimlaneHead=0;swimlaneBody=0;fillColor=none;collapsible=0;dropTarget=0;points=[[0,0.5],[1,0.5]];portConstraint=eastwest;strokeColor=inherit;top=0;left=0;right=0;bottom=0;" parent="RUxIvZRB7XPH0YZIQcYa-204" vertex="1">
                    <mxGeometry y="120" width="600" height="30" as="geometry"/>
                </mxCell>
                <mxCell id="RUxIvZRB7XPH0YZIQcYa-215" value="" style="shape=partialRectangle;overflow=hidden;connectable=0;fillColor=none;strokeColor=inherit;top=0;left=0;bottom=0;right=0;" parent="RUxIvZRB7XPH0YZIQcYa-214" vertex="1">
                    <mxGeometry width="30" height="30" as="geometry">
                        <mxRectangle width="30" height="30" as="alternateBounds"/>
                    </mxGeometry>
                </mxCell>
                <mxCell id="RUxIvZRB7XPH0YZIQcYa-216" value="status ENUM(&#39;draft&#39;, &#39;awaiting_player_approval&#39;, &#39;awaiting_coach_approval&#39;, &#39;approved&#39;) DEFAULT &#39;draft&#39;" style="shape=partialRectangle;overflow=hidden;connectable=0;fillColor=none;align=left;strokeColor=inherit;top=0;left=0;bottom=0;right=0;spacingLeft=6;" parent="RUxIvZRB7XPH0YZIQcYa-214" vertex="1">
                    <mxGeometry x="30" width="570" height="30" as="geometry">
                        <mxRectangle width="570" height="30" as="alternateBounds"/>
                    </mxGeometry>
                </mxCell>
                <mxCell id="RUxIvZRB7XPH0YZIQcYa-217" value="" style="shape=tableRow;horizontal=0;startSize=0;swimlaneHead=0;swimlaneBody=0;fillColor=none;collapsible=0;dropTarget=0;points=[[0,0.5],[1,0.5]];portConstraint=eastwest;strokeColor=inherit;top=0;left=0;right=0;bottom=0;" parent="RUxIvZRB7XPH0YZIQcYa-204" vertex="1">
                    <mxGeometry y="150" width="600" height="30" as="geometry"/>
                </mxCell>
                <mxCell id="RUxIvZRB7XPH0YZIQcYa-218" value="FK2" style="shape=partialRectangle;overflow=hidden;connectable=0;fillColor=none;strokeColor=inherit;top=0;left=0;bottom=0;right=0;" parent="RUxIvZRB7XPH0YZIQcYa-217" vertex="1">
                    <mxGeometry width="30" height="30" as="geometry">
                        <mxRectangle width="30" height="30" as="alternateBounds"/>
                    </mxGeometry>
                </mxCell>
                <mxCell id="RUxIvZRB7XPH0YZIQcYa-219" value="created_by INT NOT NULL" style="shape=partialRectangle;overflow=hidden;connectable=0;fillColor=none;align=left;strokeColor=inherit;top=0;left=0;bottom=0;right=0;spacingLeft=6;" parent="RUxIvZRB7XPH0YZIQcYa-217" vertex="1">
                    <mxGeometry x="30" width="570" height="30" as="geometry">
                        <mxRectangle width="570" height="30" as="alternateBounds"/>
                    </mxGeometry>
                </mxCell>
                <mxCell id="RUxIvZRB7XPH0YZIQcYa-220" value="" style="shape=tableRow;horizontal=0;startSize=0;swimlaneHead=0;swimlaneBody=0;fillColor=none;collapsible=0;dropTarget=0;points=[[0,0.5],[1,0.5]];portConstraint=eastwest;strokeColor=inherit;top=0;left=0;right=0;bottom=0;" parent="RUxIvZRB7XPH0YZIQcYa-204" vertex="1">
                    <mxGeometry y="180" width="600" height="30" as="geometry"/>
                </mxCell>
                <mxCell id="RUxIvZRB7XPH0YZIQcYa-221" value="" style="shape=partialRectangle;overflow=hidden;connectable=0;fillColor=none;strokeColor=inherit;top=0;left=0;bottom=0;right=0;" parent="RUxIvZRB7XPH0YZIQcYa-220" vertex="1">
                    <mxGeometry width="30" height="30" as="geometry">
                        <mxRectangle width="30" height="30" as="alternateBounds"/>
                    </mxGeometry>
                </mxCell>
                <mxCell id="RUxIvZRB7XPH0YZIQcYa-222" value="created_at DATETIME NOT NULL" style="shape=partialRectangle;overflow=hidden;connectable=0;fillColor=none;align=left;strokeColor=inherit;top=0;left=0;bottom=0;right=0;spacingLeft=6;" parent="RUxIvZRB7XPH0YZIQcYa-220" vertex="1">
                    <mxGeometry x="30" width="570" height="30" as="geometry">
                        <mxRectangle width="570" height="30" as="alternateBounds"/>
                    </mxGeometry>
                </mxCell>
                <mxCell id="RUxIvZRB7XPH0YZIQcYa-223" value="" style="shape=tableRow;horizontal=0;startSize=0;swimlaneHead=0;swimlaneBody=0;fillColor=none;collapsible=0;dropTarget=0;points=[[0,0.5],[1,0.5]];portConstraint=eastwest;strokeColor=inherit;top=0;left=0;right=0;bottom=0;" parent="RUxIvZRB7XPH0YZIQcYa-204" vertex="1">
                    <mxGeometry y="210" width="600" height="30" as="geometry"/>
                </mxCell>
                <mxCell id="RUxIvZRB7XPH0YZIQcYa-224" value="" style="shape=partialRectangle;overflow=hidden;connectable=0;fillColor=none;strokeColor=inherit;top=0;left=0;bottom=0;right=0;" parent="RUxIvZRB7XPH0YZIQcYa-223" vertex="1">
                    <mxGeometry width="30" height="30" as="geometry">
                        <mxRectangle width="30" height="30" as="alternateBounds"/>
                    </mxGeometry>
                </mxCell>
                <mxCell id="RUxIvZRB7XPH0YZIQcYa-225" value="updated_at DATETIME NOT NULL" style="shape=partialRectangle;overflow=hidden;connectable=0;fillColor=none;align=left;strokeColor=inherit;top=0;left=0;bottom=0;right=0;spacingLeft=6;" parent="RUxIvZRB7XPH0YZIQcYa-223" vertex="1">
                    <mxGeometry x="30" width="570" height="30" as="geometry">
                        <mxRectangle width="570" height="30" as="alternateBounds"/>
                    </mxGeometry>
                </mxCell>
                <mxCell id="RUxIvZRB7XPH0YZIQcYa-232" value="MeasurementItem" style="shape=table;startSize=30;container=1;collapsible=1;childLayout=tableLayout;fixedRows=1;rowLines=0;fontStyle=1;align=center;resizeLast=1;" parent="1" vertex="1">
                    <mxGeometry x="20" y="380" width="350" height="210" as="geometry"/>
                </mxCell>
                <mxCell id="RUxIvZRB7XPH0YZIQcYa-233" value="" style="shape=tableRow;horizontal=0;startSize=0;swimlaneHead=0;swimlaneBody=0;fillColor=none;collapsible=0;dropTarget=0;points=[[0,0.5],[1,0.5]];portConstraint=eastwest;strokeColor=inherit;top=0;left=0;right=0;bottom=1;" parent="RUxIvZRB7XPH0YZIQcYa-232" vertex="1">
                    <mxGeometry y="30" width="350" height="30" as="geometry"/>
                </mxCell>
                <mxCell id="RUxIvZRB7XPH0YZIQcYa-234" value="PK" style="shape=partialRectangle;overflow=hidden;connectable=0;fillColor=none;strokeColor=inherit;top=0;left=0;bottom=0;right=0;fontStyle=1;" parent="RUxIvZRB7XPH0YZIQcYa-233" vertex="1">
                    <mxGeometry width="30" height="30" as="geometry">
                        <mxRectangle width="30" height="30" as="alternateBounds"/>
                    </mxGeometry>
                </mxCell>
                <mxCell id="RUxIvZRB7XPH0YZIQcYa-235" value="id INT  AUTO_INCREMENT" style="shape=partialRectangle;overflow=hidden;connectable=0;fillColor=none;align=left;strokeColor=inherit;top=0;left=0;bottom=0;right=0;spacingLeft=6;fontStyle=5;" parent="RUxIvZRB7XPH0YZIQcYa-233" vertex="1">
                    <mxGeometry x="30" width="320" height="30" as="geometry">
                        <mxRectangle width="320" height="30" as="alternateBounds"/>
                    </mxGeometry>
                </mxCell>
                <mxCell id="RUxIvZRB7XPH0YZIQcYa-236" value="" style="shape=tableRow;horizontal=0;startSize=0;swimlaneHead=0;swimlaneBody=0;fillColor=none;collapsible=0;dropTarget=0;points=[[0,0.5],[1,0.5]];portConstraint=eastwest;strokeColor=inherit;top=0;left=0;right=0;bottom=0;" parent="RUxIvZRB7XPH0YZIQcYa-232" vertex="1">
                    <mxGeometry y="60" width="350" height="30" as="geometry"/>
                </mxCell>
                <mxCell id="RUxIvZRB7XPH0YZIQcYa-237" value="FK1" style="shape=partialRectangle;overflow=hidden;connectable=0;fillColor=none;strokeColor=inherit;top=0;left=0;bottom=0;right=0;" parent="RUxIvZRB7XPH0YZIQcYa-236" vertex="1">
                    <mxGeometry width="30" height="30" as="geometry">
                        <mxRectangle width="30" height="30" as="alternateBounds"/>
                    </mxGeometry>
                </mxCell>
                <mxCell id="RUxIvZRB7XPH0YZIQcYa-238" value="record_id INT NOT NULL" style="shape=partialRectangle;overflow=hidden;connectable=0;fillColor=none;align=left;strokeColor=inherit;top=0;left=0;bottom=0;right=0;spacingLeft=6;" parent="RUxIvZRB7XPH0YZIQcYa-236" vertex="1">
                    <mxGeometry x="30" width="320" height="30" as="geometry">
                        <mxRectangle width="320" height="30" as="alternateBounds"/>
                    </mxGeometry>
                </mxCell>
                <mxCell id="RUxIvZRB7XPH0YZIQcYa-239" value="" style="shape=tableRow;horizontal=0;startSize=0;swimlaneHead=0;swimlaneBody=0;fillColor=none;collapsible=0;dropTarget=0;points=[[0,0.5],[1,0.5]];portConstraint=eastwest;strokeColor=inherit;top=0;left=0;right=0;bottom=0;" parent="RUxIvZRB7XPH0YZIQcYa-232" vertex="1">
                    <mxGeometry y="90" width="350" height="30" as="geometry"/>
                </mxCell>
                <mxCell id="RUxIvZRB7XPH0YZIQcYa-240" value="" style="shape=partialRectangle;overflow=hidden;connectable=0;fillColor=none;strokeColor=inherit;top=0;left=0;bottom=0;right=0;" parent="RUxIvZRB7XPH0YZIQcYa-239" vertex="1">
                    <mxGeometry width="30" height="30" as="geometry">
                        <mxRectangle width="30" height="30" as="alternateBounds"/>
                    </mxGeometry>
                </mxCell>
                <mxCell id="RUxIvZRB7XPH0YZIQcYa-241" value="category ENUM(&#39;走力&#39;, &#39;肩力&#39;, &#39;打力&#39;, &#39;筋力&#39;) NOT NULL" style="shape=partialRectangle;overflow=hidden;connectable=0;fillColor=none;align=left;strokeColor=inherit;top=0;left=0;bottom=0;right=0;spacingLeft=6;" parent="RUxIvZRB7XPH0YZIQcYa-239" vertex="1">
                    <mxGeometry x="30" width="320" height="30" as="geometry">
                        <mxRectangle width="320" height="30" as="alternateBounds"/>
                    </mxGeometry>
                </mxCell>
                <mxCell id="RUxIvZRB7XPH0YZIQcYa-242" value="" style="shape=tableRow;horizontal=0;startSize=0;swimlaneHead=0;swimlaneBody=0;fillColor=none;collapsible=0;dropTarget=0;points=[[0,0.5],[1,0.5]];portConstraint=eastwest;strokeColor=inherit;top=0;left=0;right=0;bottom=0;" parent="RUxIvZRB7XPH0YZIQcYa-232" vertex="1">
                    <mxGeometry y="120" width="350" height="30" as="geometry"/>
                </mxCell>
                <mxCell id="RUxIvZRB7XPH0YZIQcYa-243" value="" style="shape=partialRectangle;overflow=hidden;connectable=0;fillColor=none;strokeColor=inherit;top=0;left=0;bottom=0;right=0;" parent="RUxIvZRB7XPH0YZIQcYa-242" vertex="1">
                    <mxGeometry width="30" height="30" as="geometry">
                        <mxRectangle width="30" height="30" as="alternateBounds"/>
                    </mxGeometry>
                </mxCell>
                <mxCell id="RUxIvZRB7XPH0YZIQcYa-244" value="item_name VARCHAR(50) NOT NULL" style="shape=partialRectangle;overflow=hidden;connectable=0;fillColor=none;align=left;strokeColor=inherit;top=0;left=0;bottom=0;right=0;spacingLeft=6;" parent="RUxIvZRB7XPH0YZIQcYa-242" vertex="1">
                    <mxGeometry x="30" width="320" height="30" as="geometry">
                        <mxRectangle width="320" height="30" as="alternateBounds"/>
                    </mxGeometry>
                </mxCell>
                <mxCell id="RUxIvZRB7XPH0YZIQcYa-245" value="" style="shape=tableRow;horizontal=0;startSize=0;swimlaneHead=0;swimlaneBody=0;fillColor=none;collapsible=0;dropTarget=0;points=[[0,0.5],[1,0.5]];portConstraint=eastwest;strokeColor=inherit;top=0;left=0;right=0;bottom=0;" parent="RUxIvZRB7XPH0YZIQcYa-232" vertex="1">
                    <mxGeometry y="150" width="350" height="30" as="geometry"/>
                </mxCell>
                <mxCell id="RUxIvZRB7XPH0YZIQcYa-246" value="" style="shape=partialRectangle;overflow=hidden;connectable=0;fillColor=none;strokeColor=inherit;top=0;left=0;bottom=0;right=0;" parent="RUxIvZRB7XPH0YZIQcYa-245" vertex="1">
                    <mxGeometry width="30" height="30" as="geometry">
                        <mxRectangle width="30" height="30" as="alternateBounds"/>
                    </mxGeometry>
                </mxCell>
                <mxCell id="RUxIvZRB7XPH0YZIQcYa-247" value="value FLOAT NOT NULL" style="shape=partialRectangle;overflow=hidden;connectable=0;fillColor=none;align=left;strokeColor=inherit;top=0;left=0;bottom=0;right=0;spacingLeft=6;" parent="RUxIvZRB7XPH0YZIQcYa-245" vertex="1">
                    <mxGeometry x="30" width="320" height="30" as="geometry">
                        <mxRectangle width="320" height="30" as="alternateBounds"/>
                    </mxGeometry>
                </mxCell>
                <mxCell id="RUxIvZRB7XPH0YZIQcYa-248" value="" style="shape=tableRow;horizontal=0;startSize=0;swimlaneHead=0;swimlaneBody=0;fillColor=none;collapsible=0;dropTarget=0;points=[[0,0.5],[1,0.5]];portConstraint=eastwest;strokeColor=inherit;top=0;left=0;right=0;bottom=0;" parent="RUxIvZRB7XPH0YZIQcYa-232" vertex="1">
                    <mxGeometry y="180" width="350" height="30" as="geometry"/>
                </mxCell>
                <mxCell id="RUxIvZRB7XPH0YZIQcYa-249" value="" style="shape=partialRectangle;overflow=hidden;connectable=0;fillColor=none;strokeColor=inherit;top=0;left=0;bottom=0;right=0;" parent="RUxIvZRB7XPH0YZIQcYa-248" vertex="1">
                    <mxGeometry width="30" height="30" as="geometry">
                        <mxRectangle width="30" height="30" as="alternateBounds"/>
                    </mxGeometry>
                </mxCell>
                <mxCell id="RUxIvZRB7XPH0YZIQcYa-250" value="unit VARCHAR(10)" style="shape=partialRectangle;overflow=hidden;connectable=0;fillColor=none;align=left;strokeColor=inherit;top=0;left=0;bottom=0;right=0;spacingLeft=6;" parent="RUxIvZRB7XPH0YZIQcYa-248" vertex="1">
                    <mxGeometry x="30" width="320" height="30" as="geometry">
                        <mxRectangle width="320" height="30" as="alternateBounds"/>
                    </mxGeometry>
                </mxCell>
                <mxCell id="RUxIvZRB7XPH0YZIQcYa-254" value="ApprovalStatus" style="shape=table;startSize=30;container=1;collapsible=1;childLayout=tableLayout;fixedRows=1;rowLines=0;fontStyle=1;align=center;resizeLast=1;" parent="1" vertex="1">
                    <mxGeometry x="-620" y="700" width="430" height="240" as="geometry"/>
                </mxCell>
                <mxCell id="RUxIvZRB7XPH0YZIQcYa-255" value="" style="shape=tableRow;horizontal=0;startSize=0;swimlaneHead=0;swimlaneBody=0;fillColor=none;collapsible=0;dropTarget=0;points=[[0,0.5],[1,0.5]];portConstraint=eastwest;strokeColor=inherit;top=0;left=0;right=0;bottom=1;" parent="RUxIvZRB7XPH0YZIQcYa-254" vertex="1">
                    <mxGeometry y="30" width="430" height="30" as="geometry"/>
                </mxCell>
                <mxCell id="RUxIvZRB7XPH0YZIQcYa-256" value="PK" style="shape=partialRectangle;overflow=hidden;connectable=0;fillColor=none;strokeColor=inherit;top=0;left=0;bottom=0;right=0;fontStyle=1;" parent="RUxIvZRB7XPH0YZIQcYa-255" vertex="1">
                    <mxGeometry width="30" height="30" as="geometry">
                        <mxRectangle width="30" height="30" as="alternateBounds"/>
                    </mxGeometry>
                </mxCell>
                <mxCell id="RUxIvZRB7XPH0YZIQcYa-257" value="id INT  AUTO_INCREMENT" style="shape=partialRectangle;overflow=hidden;connectable=0;fillColor=none;align=left;strokeColor=inherit;top=0;left=0;bottom=0;right=0;spacingLeft=6;fontStyle=5;" parent="RUxIvZRB7XPH0YZIQcYa-255" vertex="1">
                    <mxGeometry x="30" width="400" height="30" as="geometry">
                        <mxRectangle width="400" height="30" as="alternateBounds"/>
                    </mxGeometry>
                </mxCell>
                <mxCell id="RUxIvZRB7XPH0YZIQcYa-258" value="" style="shape=tableRow;horizontal=0;startSize=0;swimlaneHead=0;swimlaneBody=0;fillColor=none;collapsible=0;dropTarget=0;points=[[0,0.5],[1,0.5]];portConstraint=eastwest;strokeColor=inherit;top=0;left=0;right=0;bottom=0;" parent="RUxIvZRB7XPH0YZIQcYa-254" vertex="1">
                    <mxGeometry y="60" width="430" height="30" as="geometry"/>
                </mxCell>
                <mxCell id="RUxIvZRB7XPH0YZIQcYa-259" value="" style="shape=partialRectangle;overflow=hidden;connectable=0;fillColor=none;strokeColor=inherit;top=0;left=0;bottom=0;right=0;" parent="RUxIvZRB7XPH0YZIQcYa-258" vertex="1">
                    <mxGeometry width="30" height="30" as="geometry">
                        <mxRectangle width="30" height="30" as="alternateBounds"/>
                    </mxGeometry>
                </mxCell>
                <mxCell id="RUxIvZRB7XPH0YZIQcYa-260" value="record_id INT NOT NULL" style="shape=partialRectangle;overflow=hidden;connectable=0;fillColor=none;align=left;strokeColor=inherit;top=0;left=0;bottom=0;right=0;spacingLeft=6;" parent="RUxIvZRB7XPH0YZIQcYa-258" vertex="1">
                    <mxGeometry x="30" width="400" height="30" as="geometry">
                        <mxRectangle width="400" height="30" as="alternateBounds"/>
                    </mxGeometry>
                </mxCell>
                <mxCell id="RUxIvZRB7XPH0YZIQcYa-261" value="" style="shape=tableRow;horizontal=0;startSize=0;swimlaneHead=0;swimlaneBody=0;fillColor=none;collapsible=0;dropTarget=0;points=[[0,0.5],[1,0.5]];portConstraint=eastwest;strokeColor=inherit;top=0;left=0;right=0;bottom=0;" parent="RUxIvZRB7XPH0YZIQcYa-254" vertex="1">
                    <mxGeometry y="90" width="430" height="30" as="geometry"/>
                </mxCell>
                <mxCell id="RUxIvZRB7XPH0YZIQcYa-262" value="" style="shape=partialRectangle;overflow=hidden;connectable=0;fillColor=none;strokeColor=inherit;top=0;left=0;bottom=0;right=0;" parent="RUxIvZRB7XPH0YZIQcYa-261" vertex="1">
                    <mxGeometry width="30" height="30" as="geometry">
                        <mxRectangle width="30" height="30" as="alternateBounds"/>
                    </mxGeometry>
                </mxCell>
                <mxCell id="RUxIvZRB7XPH0YZIQcYa-263" value="approver_id INT NOT NULL" style="shape=partialRectangle;overflow=hidden;connectable=0;fillColor=none;align=left;strokeColor=inherit;top=0;left=0;bottom=0;right=0;spacingLeft=6;" parent="RUxIvZRB7XPH0YZIQcYa-261" vertex="1">
                    <mxGeometry x="30" width="400" height="30" as="geometry">
                        <mxRectangle width="400" height="30" as="alternateBounds"/>
                    </mxGeometry>
                </mxCell>
                <mxCell id="RUxIvZRB7XPH0YZIQcYa-264" value="" style="shape=tableRow;horizontal=0;startSize=0;swimlaneHead=0;swimlaneBody=0;fillColor=none;collapsible=0;dropTarget=0;points=[[0,0.5],[1,0.5]];portConstraint=eastwest;strokeColor=inherit;top=0;left=0;right=0;bottom=0;" parent="RUxIvZRB7XPH0YZIQcYa-254" vertex="1">
                    <mxGeometry y="120" width="430" height="30" as="geometry"/>
                </mxCell>
                <mxCell id="RUxIvZRB7XPH0YZIQcYa-265" value="" style="shape=partialRectangle;overflow=hidden;connectable=0;fillColor=none;strokeColor=inherit;top=0;left=0;bottom=0;right=0;" parent="RUxIvZRB7XPH0YZIQcYa-264" vertex="1">
                    <mxGeometry width="30" height="30" as="geometry">
                        <mxRectangle width="30" height="30" as="alternateBounds"/>
                    </mxGeometry>
                </mxCell>
                <mxCell id="RUxIvZRB7XPH0YZIQcYa-266" value="role ENUM(&#39;player&#39;, &#39;coach&#39;) NOT NULL" style="shape=partialRectangle;overflow=hidden;connectable=0;fillColor=none;align=left;strokeColor=inherit;top=0;left=0;bottom=0;right=0;spacingLeft=6;" parent="RUxIvZRB7XPH0YZIQcYa-264" vertex="1">
                    <mxGeometry x="30" width="400" height="30" as="geometry">
                        <mxRectangle width="400" height="30" as="alternateBounds"/>
                    </mxGeometry>
                </mxCell>
                <mxCell id="RUxIvZRB7XPH0YZIQcYa-267" value="" style="shape=tableRow;horizontal=0;startSize=0;swimlaneHead=0;swimlaneBody=0;fillColor=none;collapsible=0;dropTarget=0;points=[[0,0.5],[1,0.5]];portConstraint=eastwest;strokeColor=inherit;top=0;left=0;right=0;bottom=0;" parent="RUxIvZRB7XPH0YZIQcYa-254" vertex="1">
                    <mxGeometry y="150" width="430" height="30" as="geometry"/>
                </mxCell>
                <mxCell id="RUxIvZRB7XPH0YZIQcYa-268" value="" style="shape=partialRectangle;overflow=hidden;connectable=0;fillColor=none;strokeColor=inherit;top=0;left=0;bottom=0;right=0;" parent="RUxIvZRB7XPH0YZIQcYa-267" vertex="1">
                    <mxGeometry width="30" height="30" as="geometry">
                        <mxRectangle width="30" height="30" as="alternateBounds"/>
                    </mxGeometry>
                </mxCell>
                <mxCell id="RUxIvZRB7XPH0YZIQcYa-269" value="status ENUM(&#39;pending&#39;, &#39;approved&#39;, &#39;rejected&#39;) DEFAULT &#39;pending&#39;" style="shape=partialRectangle;overflow=hidden;connectable=0;fillColor=none;align=left;strokeColor=inherit;top=0;left=0;bottom=0;right=0;spacingLeft=6;" parent="RUxIvZRB7XPH0YZIQcYa-267" vertex="1">
                    <mxGeometry x="30" width="400" height="30" as="geometry">
                        <mxRectangle width="400" height="30" as="alternateBounds"/>
                    </mxGeometry>
                </mxCell>
                <mxCell id="RUxIvZRB7XPH0YZIQcYa-270" value="" style="shape=tableRow;horizontal=0;startSize=0;swimlaneHead=0;swimlaneBody=0;fillColor=none;collapsible=0;dropTarget=0;points=[[0,0.5],[1,0.5]];portConstraint=eastwest;strokeColor=inherit;top=0;left=0;right=0;bottom=0;" parent="RUxIvZRB7XPH0YZIQcYa-254" vertex="1">
                    <mxGeometry y="180" width="430" height="30" as="geometry"/>
                </mxCell>
                <mxCell id="RUxIvZRB7XPH0YZIQcYa-271" value="" style="shape=partialRectangle;overflow=hidden;connectable=0;fillColor=none;strokeColor=inherit;top=0;left=0;bottom=0;right=0;" parent="RUxIvZRB7XPH0YZIQcYa-270" vertex="1">
                    <mxGeometry width="30" height="30" as="geometry">
                        <mxRectangle width="30" height="30" as="alternateBounds"/>
                    </mxGeometry>
                </mxCell>
                <mxCell id="RUxIvZRB7XPH0YZIQcYa-272" value="approved_at DATETIME" style="shape=partialRectangle;overflow=hidden;connectable=0;fillColor=none;align=left;strokeColor=inherit;top=0;left=0;bottom=0;right=0;spacingLeft=6;" parent="RUxIvZRB7XPH0YZIQcYa-270" vertex="1">
                    <mxGeometry x="30" width="400" height="30" as="geometry">
                        <mxRectangle width="400" height="30" as="alternateBounds"/>
                    </mxGeometry>
                </mxCell>
                <mxCell id="RUxIvZRB7XPH0YZIQcYa-273" value="" style="shape=tableRow;horizontal=0;startSize=0;swimlaneHead=0;swimlaneBody=0;fillColor=none;collapsible=0;dropTarget=0;points=[[0,0.5],[1,0.5]];portConstraint=eastwest;strokeColor=inherit;top=0;left=0;right=0;bottom=0;" parent="RUxIvZRB7XPH0YZIQcYa-254" vertex="1">
                    <mxGeometry y="210" width="430" height="30" as="geometry"/>
                </mxCell>
                <mxCell id="RUxIvZRB7XPH0YZIQcYa-274" value="" style="shape=partialRectangle;overflow=hidden;connectable=0;fillColor=none;strokeColor=inherit;top=0;left=0;bottom=0;right=0;" parent="RUxIvZRB7XPH0YZIQcYa-273" vertex="1">
                    <mxGeometry width="30" height="30" as="geometry">
                        <mxRectangle width="30" height="30" as="alternateBounds"/>
                    </mxGeometry>
                </mxCell>
                <mxCell id="RUxIvZRB7XPH0YZIQcYa-275" value="comment TEXT" style="shape=partialRectangle;overflow=hidden;connectable=0;fillColor=none;align=left;strokeColor=inherit;top=0;left=0;bottom=0;right=0;spacingLeft=6;" parent="RUxIvZRB7XPH0YZIQcYa-273" vertex="1">
                    <mxGeometry x="30" width="400" height="30" as="geometry">
                        <mxRectangle width="400" height="30" as="alternateBounds"/>
                    </mxGeometry>
                </mxCell>
                <mxCell id="7" value="" style="edgeStyle=orthogonalEdgeStyle;fontSize=12;html=1;endArrow=ERzeroToOne;startArrow=ERmandOne;exitX=1;exitY=0.5;exitDx=0;exitDy=0;entryX=0;entryY=0.5;entryDx=0;entryDy=0;" parent="1" source="RUxIvZRB7XPH0YZIQcYa-139" target="RUxIvZRB7XPH0YZIQcYa-164" edge="1">
                    <mxGeometry width="100" height="100" relative="1" as="geometry">
                        <mxPoint x="-440" y="80" as="sourcePoint"/>
                        <mxPoint x="-80" y="260" as="targetPoint"/>
                    </mxGeometry>
                </mxCell>
                <mxCell id="8" value="" style="edgeStyle=orthogonalEdgeStyle;fontSize=12;html=1;endArrow=ERzeroToOne;startArrow=ERmandOne;exitX=1;exitY=0.5;exitDx=0;exitDy=0;entryX=0;entryY=0.5;entryDx=0;entryDy=0;" parent="1" source="RUxIvZRB7XPH0YZIQcYa-161" target="RUxIvZRB7XPH0YZIQcYa-192" edge="1">
                    <mxGeometry width="100" height="100" relative="1" as="geometry">
                        <mxPoint x="100" y="280" as="sourcePoint"/>
                        <mxPoint x="170" y="310" as="targetPoint"/>
                    </mxGeometry>
                </mxCell>
                <mxCell id="9" value="" style="edgeStyle=orthogonalEdgeStyle;fontSize=12;html=1;endArrow=ERzeroToMany;startArrow=ERmandOne;elbow=vertical;entryX=0;entryY=0.5;entryDx=0;entryDy=0;exitX=1;exitY=0.5;exitDx=0;exitDy=0;" parent="1" source="RUxIvZRB7XPH0YZIQcYa-189" target="RUxIvZRB7XPH0YZIQcYa-208" edge="1">
                    <mxGeometry width="100" height="100" relative="1" as="geometry">
                        <mxPoint x="550" y="80" as="sourcePoint"/>
                        <mxPoint x="-630" y="550" as="targetPoint"/>
                        <Array as="points">
                            <mxPoint x="390" y="75"/>
                            <mxPoint x="390" y="340"/>
                            <mxPoint x="-710" y="340"/>
                            <mxPoint x="-710" y="455"/>
                        </Array>
                    </mxGeometry>
                </mxCell>
                <mxCell id="J9dTtdvePvFcelaZEFBs-9" value="" style="edgeStyle=orthogonalEdgeStyle;fontSize=12;html=1;endArrow=ERzeroToMany;startArrow=ERmandOne;rounded=1;exitX=0.216;exitY=1;exitDx=0;exitDy=0;exitPerimeter=0;curved=0;entryX=0;entryY=0.5;entryDx=0;entryDy=0;" parent="1" source="RUxIvZRB7XPH0YZIQcYa-157" target="RUxIvZRB7XPH0YZIQcYa-217" edge="1">
                    <mxGeometry width="100" height="100" relative="1" as="geometry">
                        <mxPoint x="-200" y="370" as="sourcePoint"/>
                        <mxPoint x="-730" y="590" as="targetPoint"/>
                        <Array as="points">
                            <mxPoint x="-740" y="545"/>
                        </Array>
                    </mxGeometry>
                </mxCell>
                <mxCell id="J9dTtdvePvFcelaZEFBs-11" value="" style="edgeStyle=orthogonalEdgeStyle;fontSize=12;html=1;endArrow=ERzeroToMany;startArrow=ERmandOne;rounded=1;exitX=1;exitY=0.5;exitDx=0;exitDy=0;entryX=0;entryY=0.5;entryDx=0;entryDy=0;curved=0;" parent="1" source="RUxIvZRB7XPH0YZIQcYa-205" target="RUxIvZRB7XPH0YZIQcYa-236" edge="1">
                    <mxGeometry width="100" height="100" relative="1" as="geometry">
                        <mxPoint x="-60" y="440" as="sourcePoint"/>
                        <mxPoint x="40" y="340" as="targetPoint"/>
                    </mxGeometry>
                </mxCell>
                <mxCell id="J9dTtdvePvFcelaZEFBs-12" value="" style="edgeStyle=orthogonalEdgeStyle;fontSize=12;html=1;endArrow=ERzeroToMany;startArrow=ERmandOne;rounded=1;entryX=0;entryY=0.5;entryDx=0;entryDy=0;curved=0;exitX=0.14;exitY=1;exitDx=0;exitDy=0;exitPerimeter=0;" parent="1" source="RUxIvZRB7XPH0YZIQcYa-157" target="RUxIvZRB7XPH0YZIQcYa-261" edge="1">
                    <mxGeometry width="100" height="100" relative="1" as="geometry">
                        <mxPoint x="-760" y="280" as="sourcePoint"/>
                        <mxPoint x="50" y="530" as="targetPoint"/>
                        <Array as="points">
                            <mxPoint x="-768" y="805"/>
                        </Array>
                    </mxGeometry>
                </mxCell>
                <mxCell id="J9dTtdvePvFcelaZEFBs-13" value="" style="edgeStyle=orthogonalEdgeStyle;fontSize=12;html=1;endArrow=ERzeroToMany;startArrow=ERmandOne;rounded=1;entryX=0;entryY=0.5;entryDx=0;entryDy=0;curved=0;exitX=1;exitY=0.5;exitDx=0;exitDy=0;" parent="1" source="RUxIvZRB7XPH0YZIQcYa-233" target="RUxIvZRB7XPH0YZIQcYa-258" edge="1">
                    <mxGeometry width="100" height="100" relative="1" as="geometry">
                        <mxPoint x="220.33999999999992" y="649.8500000000001" as="sourcePoint"/>
                        <mxPoint x="30" y="850" as="targetPoint"/>
                        <Array as="points">
                            <mxPoint x="400" y="425"/>
                            <mxPoint x="400" y="660"/>
                            <mxPoint x="-710" y="660"/>
                            <mxPoint x="-710" y="775"/>
                        </Array>
                    </mxGeometry>
                </mxCell>
            </root>
        </mxGraphModel>
    </diagram>
</mxfile>